<svg width="528" height="513" viewBox="0 0 528 513" version="1.1" xmlns="http://www.w3.org/2000/svg" xmlns:xlink="http://www.w3.org/1999/xlink">
<title>meetup</title>
<desc>Created using Figma</desc>
<g id="Canvas" transform="translate(-8945 -954)">
<g id="meetup">
<g id="Vector">
<use xlink:href="#path0_fill" transform="translate(8945 954)" fill="#FFFFFF"/>
</g>
</g>
</g>
<defs>
<path id="path0_fill" d="M 99.0659 414.315C 100.166 420.015 96.7659 425.415 91.0659 426.615C 85.6659 427.715 80.1659 424.315 79.0659 418.615C 77.9659 413.215 81.3659 407.515 86.7659 406.315C 92.1659 405.115 97.8659 408.615 99.0659 414.315ZM 242.166 485.715C 235.866 490.315 234.166 499.115 238.466 505.715C 243.066 512.315 251.866 514.015 258.466 509.415C 264.766 504.815 266.466 496.015 261.866 489.415C 257.666 482.915 248.766 481.115 242.166 485.715L 242.166 485.715ZM 156.166 23.4146C 162.466 22.0146 166.466 15.7146 165.066 9.4146C 163.966 2.8146 157.666 -1.1854 151.366 0.314599C 145.066 1.7146 141.066 8.0146 142.266 14.3146C 143.666 20.9146 149.866 24.9146 156.166 23.4146L 156.166 23.4146ZM 34.4659 226.315C 24.4659 219.415 10.7659 222.015 3.86586 232.315C -3.03414 242.315 -0.434145 256.315 9.56586 263.215C 19.5659 270.315 33.2659 267.815 40.1659 257.515C 47.0659 247.115 44.4659 233.415 34.4659 226.315L 34.4659 226.315ZM 306.466 55.4146C 317.066 49.1146 320.166 35.4146 314.166 25.1146C 307.866 14.5146 294.466 11.1146 284.166 17.4146C 273.866 23.7146 270.466 37.4146 276.766 48.0146C 282.766 58.3146 296.166 61.7146 306.466 55.4146ZM 115.366 113.415C 123.066 108.015 124.766 97.4146 119.666 89.7146C 114.566 82.0146 103.966 80.3146 96.5659 85.4146C 88.8659 90.8146 87.1659 101.415 92.2659 109.115C 97.3659 116.915 107.866 118.615 115.366 113.415ZM 487.666 269.415C 480.266 271.115 475.366 278.515 477.066 286.315C 478.466 293.715 485.966 298.615 493.366 296.915C 500.766 295.515 505.666 288.015 503.966 280.315C 502.466 272.915 495.066 268.015 487.666 269.415ZM 527.366 212.615C 526.266 206.915 520.766 203.515 515.366 204.615C 509.666 205.715 506.266 211.515 507.366 217.215C 508.466 222.615 513.966 226.315 519.666 225.215C 525.066 223.715 528.766 218.315 527.366 212.615ZM 447.066 138.915C 438.466 144.915 436.466 156.615 442.166 165.215C 447.866 173.815 459.566 175.815 468.166 170.115C 476.466 164.115 478.466 152.415 472.766 143.815C 467.066 135.115 455.366 132.915 447.066 138.915L 447.066 138.915ZM 440.766 278.315C 467.066 321.415 455.866 378.315 414.466 407.415C 397.066 419.715 377.366 425.115 357.566 424.515C 345.566 471.615 288.166 489.115 252.466 457.115C 251.366 458.015 249.866 458.815 248.766 460.015C 209.666 487.115 156.466 477.415 129.366 437.715C 119.666 423.415 114.766 407.115 114.266 390.815C 48.8659 379.915 24.2659 296.815 73.1659 251.115C 44.8659 204.215 73.7659 143.715 126.566 136.215C 151.666 70.0146 234.166 38.6146 290.166 82.0146C 357.566 59.7146 426.466 111.415 421.066 183.115C 462.166 195.715 473.866 250.015 440.766 278.315ZM 370.766 352.615C 367.666 332.015 329.866 348.015 327.666 325.515C 324.566 293.515 371.366 224.415 367.666 197.515C 364.266 173.515 348.266 168.415 334.266 168.115C 320.866 167.815 317.366 170.115 312.866 172.715C 309.966 174.415 306.266 177.615 301.166 172.415C 294.866 166.415 290.066 160.715 281.766 159.515C 269.466 157.515 264.066 161.515 255.166 169.215C 251.766 172.115 243.166 182.115 235.166 178.315C 231.766 176.615 219.766 170.615 211.166 166.915C 194.866 159.815 171.166 171.515 162.566 186.915C 149.666 209.815 124.566 300.015 120.866 312.015C 112.266 338.615 131.766 360.615 157.766 359.115C 168.866 358.515 176.066 354.515 183.166 341.715C 187.166 334.315 224.866 234.015 227.766 229.115C 229.766 225.715 236.666 221.115 242.366 224.015C 248.066 227.115 249.266 233.415 248.366 239.115C 247.266 248.815 220.366 310.015 219.466 316.815C 216.066 339.715 246.366 343.415 258.066 320.815C 261.766 313.715 303.766 228.215 307.466 222.515C 311.766 216.215 314.866 214.215 319.166 214.515C 322.266 214.515 327.466 215.415 326.266 225.415C 324.866 234.815 291.166 297.715 287.366 313.115C 282.766 333.715 293.966 354.515 312.266 363.715C 323.666 369.415 374.766 379.415 370.766 352.615L 370.766 352.615ZM 376.466 444.915C 366.166 452.315 363.566 466.915 370.766 477.515C 377.866 488.115 392.166 490.615 402.766 483.515C 413.366 476.115 415.866 461.515 408.766 450.915C 401.366 440.315 387.066 437.415 376.466 444.915Z"/>
</defs>
</svg>
