<svg width="449" height="448" viewBox="0 0 449 448" version="1.1" xmlns="http://www.w3.org/2000/svg" xmlns:xlink="http://www.w3.org/1999/xlink">
<title>slack-hash</title>
<desc>Created using Figma</desc>
<g id="Canvas" transform="translate(-9473 -1019)">
<g id="slack-hash">
<g id="Vector">
<use xlink:href="#path0_fill" transform="translate(9473 1019)" fill="#FFFFFF"/>
</g>
</g>
</g>
<defs>
<path id="path0_fill" d="M 446.184 238.323C 439.984 219.323 419.284 209.223 400.184 215.423L 354.784 230.523L 324.484 140.523L 369.884 125.423C 388.984 119.223 398.984 98.6232 392.884 79.5232C 386.684 60.5232 365.984 50.4232 346.884 56.6232L 301.484 71.7232L 285.784 24.7232C 279.584 5.72323 258.884 -4.37677 239.784 1.82323C 220.684 8.02323 210.684 28.6232 216.784 47.7232L 232.484 94.7232L 139.084 125.923L 123.384 78.9232C 117.184 59.9232 96.4842 49.8232 77.3842 56.0232C 58.2842 62.2232 48.2842 82.8232 54.3842 101.923L 70.0842 148.923L 24.7842 163.923C 5.68418 170.123 -4.31582 190.723 1.78418 209.823C 6.78418 224.323 20.8842 233.823 35.3842 234.423C 42.1842 235.423 47.3842 232.823 93.0842 217.623L 123.384 307.623L 77.9842 322.723C 58.9842 328.923 48.8842 349.623 54.9842 368.623C 59.9842 383.123 74.0842 392.623 88.5842 393.223C 95.3842 394.223 100.584 391.623 146.284 376.423L 161.984 423.423C 167.884 440.323 186.684 452.423 207.984 446.323C 227.084 440.123 237.084 419.523 230.984 400.423L 215.284 353.423L 308.884 322.123L 324.584 369.123C 330.484 386.023 349.284 398.123 370.584 392.023C 389.684 385.823 399.684 365.223 393.584 346.123L 377.884 299.123L 423.284 284.023C 442.284 278.023 452.384 257.323 446.184 238.323L 446.184 238.323ZM 192.084 285.523L 161.784 195.323L 255.284 164.023L 285.584 254.223L 192.084 285.523L 192.084 285.523Z"/>
</defs>
</svg>
