<svg width="512" height="416" viewBox="0 0 512 416" version="1.1" xmlns="http://www.w3.org/2000/svg" xmlns:xlink="http://www.w3.org/1999/xlink">
<title>twitter</title>
<desc>Created using Figma</desc>
<g id="Canvas" transform="translate(-9922 -1051)">
<g id="twitter">
<g id="Vector">
<use xlink:href="#path0_fill" transform="translate(9922 1051)" fill="#FFFFFF"/>
</g>
</g>
</g>
<defs>
<path id="path0_fill" d="M 459.37 103.634C 459.695 108.182 459.695 112.731 459.695 117.279C 459.695 255.999 354.112 415.837 161.137 415.837C 101.685 415.837 46.457 398.618 0 368.731C 8.447 369.705 16.568 370.03 25.34 370.03C 74.395 370.03 119.553 353.462 155.614 325.198C 109.482 324.223 70.822 294.01 57.502 252.426C 64 253.4 70.497 254.05 77.32 254.05C 86.741 254.05 96.163 252.75 104.934 250.477C 56.853 240.73 20.791 198.497 20.791 147.492L 20.791 146.193C 34.76 153.99 51.005 158.863 68.222 159.512C 39.958 140.669 21.441 108.507 21.441 72.121C 21.441 52.629 26.638 34.761 35.735 19.167C 87.39 82.842 165.035 124.425 252.1 128.974C 250.476 121.177 249.501 113.056 249.501 104.934C 249.501 47.106 296.283 7.32422e-07 354.435 7.32422e-07C 384.648 7.32422e-07 411.937 12.67 431.105 33.137C 454.82 28.589 477.561 19.817 497.704 7.797C 489.906 32.163 473.338 52.63 451.572 65.624C 472.689 63.351 493.156 57.502 511.998 49.381C 497.706 70.172 479.837 88.689 459.37 103.634L 459.37 103.634Z"/>
</defs>
</svg>
