<?xml version="1.0" encoding="UTF-8"?>
<svg width="438px" height="349px" viewBox="0 0 438 349" version="1.1" xmlns="http://www.w3.org/2000/svg" xmlns:xlink="http://www.w3.org/1999/xlink" xmlns:sketch="http://www.bohemiancoding.com/sketch/ns">
    <!-- Generator: Sketch 3.4.2 (15855) - http://www.bohemiancoding.com/sketch -->
    <title>eventloop</title>
    <desc>Created with Sketch.</desc>
    <defs></defs>
    <g id="Page-1" stroke="none" stroke-width="1" fill="none" fill-rule="evenodd" sketch:type="MSPage">
        <g id="eventloop" sketch:type="MSLayerGroup">
            <g id="Layer_1" sketch:type="MSShapeGroup">
                <g id="Group">
                    <path d="M330.3,34.4 L94.1,34.4 L94.1,242.1 L200.9,348.9 L437.1,348.9 L437.1,141.2 L330.3,34.4 L330.3,34.4 Z" id="Shape" fill="#FFD524"></path>
                    <g transform="translate(353.000000, 285.000000)" id="Shape" fill="#000000">
                        <path d="M21,31 C21,39.5 14.3,46.2 6.1,46.2 L0.3,46.2 L0.3,37.6 L6.1,37.6 C9.6,37.6 12.6,34.6 12.6,30.9 L12.6,0.1 L21,0.1 L21,31 L21,31 Z"></path>
                        <path d="M54.4,46.2 L47.7,46.2 C41.9,46.2 37.1,42.3 35.3,37 L43.2,34.2 C43.9,36.2 45.7,37.6 47.6,37.6 L54.3,37.6 C56.8,37.6 59,35.4 59,32.5 C59,28.8 54.8,28.1 49.8,27.2 C42.9,26 34.5,24.4 34.5,13.8 C34.5,6.4 40.3,0.1 47.6,0.1 L54.3,0.1 C60.1,0.1 64.9,4 66.7,9.3 L58.8,12 C58.1,10 56.3,8.6 54.4,8.6 L47.7,8.6 C45.2,8.6 43,10.8 43,13.7 C43,17.7 47.9,18.1 53.4,19.2 C60.1,20.5 67.5,22.4 67.5,32.4 C67.6,40 61.8,46.2 54.4,46.2 L54.4,46.2 Z"></path>
                    </g>
                    <path d="M72.7,34.5 C72.7,16.1 81.9,0.4 104.2,0.4 C126.5,0.4 135.7,16.1 135.7,34.5 L135.7,38.4 L134.4,39.7 L88.5,39.7 L87.2,41 C87.2,43.6 88.5,56.7 105.6,56.7 C112.2,56.7 117.4,55.4 120,48.8 L121.3,47.5 L131.8,47.5 L133.1,48.8 C131.8,59.3 122.6,68.5 105.5,68.5 C83.2,68.6 72.7,54.2 72.7,34.5 L72.7,34.5 Z M121.2,27.9 C121.2,24 119.9,12.1 104.1,12.1 C88.3,12.1 87,23.9 87,27.9 L88.3,29.2 L119.8,29.2 L121.2,27.9 L121.2,27.9 Z" id="Shape" fill="#000000"></path>
                    <path d="M190.8,66 L189.5,67.3 L180.3,67.3 L179,66 L154.1,12.2 L154.1,3 L155.4,1.7 L163.3,1.7 L164.6,3 L184.3,48.9 L185.6,48.9 L205.3,3 L206.6,1.7 L214.5,1.7 L215.8,3 L215.8,12.2 L190.8,66 L190.8,66 Z" id="Shape" fill="#000000"></path>
                    <path d="M158.1,140.2 C158.1,121.8 167.3,106.1 189.6,106.1 C211.9,106.1 221.1,121.8 221.1,140.2 L221.1,144.1 L219.8,145.4 L173.9,145.4 L172.6,146.7 C172.6,149.3 173.9,162.4 191,162.4 C197.6,162.4 202.8,161.1 205.4,154.5 L206.7,153.2 L217.2,153.2 L218.5,154.5 C217.2,165 208,174.2 190.9,174.2 C168.6,174.3 158.1,159.9 158.1,140.2 L158.1,140.2 Z M206.6,133.6 C206.6,129.7 205.3,117.8 189.5,117.8 C173.7,117.8 172.4,129.6 172.4,133.6 L173.7,134.9 L205.2,134.9 L206.6,133.6 L206.6,133.6 Z" id="Shape" fill="#000000"></path>
                    <path d="M298.5,173 L288,173 L286.7,171.7 L286.7,133.6 C286.7,127 284.1,117.8 272.3,117.8 C260.5,117.8 253.9,124.4 253.9,140.1 L253.9,171.6 L252.6,172.9 L242.1,172.9 L240.8,171.6 L240.8,108.6 L242.1,107.3 L251.3,107.3 L252.6,108.6 L253.9,113.8 L255.2,113.8 C255.2,113.8 260.4,105.9 273.6,105.9 C292,105.9 299.9,117.7 299.9,133.5 L299.9,171.6 L298.5,173 L298.5,173 Z" id="Shape" fill="#000000"></path>
                    <path d="M331.4,120.5 L330.1,119.2 L319.6,119.2 L318.3,117.9 L318.3,108.7 L319.6,107.4 L330.1,107.4 L331.4,106.1 L331.4,89 L332.7,87.7 L343.2,87.7 L344.5,89 L344.5,106 L345.8,107.3 L368.1,107.3 L369.4,108.6 L369.4,117.8 L368.1,119.1 L345.8,119.1 L344.5,120.4 L344.5,146.7 C344.5,159.8 351.1,162.4 357.6,162.4 C362.8,162.4 369.4,159.8 369.4,150.6 L369.4,148 L370.7,146.7 L381.2,146.7 L382.5,148 L382.5,150.6 C382.5,169 368.1,174.2 357.6,174.2 C343.2,174.2 331.4,166.3 331.4,146.6 L331.4,120.5 L331.4,120.5 Z" id="Shape" fill="#000000"></path>
                    <path d="M62,285.6 L1.6,285.6 L0.3,284.3 L0.3,275.1 L1.6,273.8 L26.5,273.8 L27.8,272.5 L27.8,206.9 L26.5,205.6 L8.1,205.6 L6.8,204.3 L6.8,195.1 L8.1,193.8 L39.6,193.8 L40.9,195.1 L40.9,272.5 L42.2,273.8 L62,273.8 L63.3,275.1 L63.3,284.3 L62,285.6 L62,285.6 Z" id="Shape" fill="#000000"></path>
                    <path d="M109.3,286.9 C89.6,286.9 76.5,273.8 76.5,252.8 C76.5,231.8 89.6,218.7 109.3,218.7 L110.6,218.7 C130.3,218.7 143.4,231.8 143.4,252.8 C143.4,273.8 130.3,286.9 110.6,286.9 L109.3,286.9 L109.3,286.9 Z M110.6,275.1 C122.4,275.1 130.3,267.2 130.3,252.8 C130.3,238.4 122.4,230.5 110.6,230.5 L109.3,230.5 C97.5,230.5 89.6,238.4 89.6,252.8 C89.6,267.2 97.5,275.1 109.3,275.1 L110.6,275.1 L110.6,275.1 Z" id="Shape" fill="#000000"></path>
                    <path d="M189.4,286.9 C169.7,286.9 156.6,273.8 156.6,252.8 C156.6,231.8 169.7,218.7 189.4,218.7 L190.7,218.7 C210.4,218.7 223.5,231.8 223.5,252.8 C223.5,273.8 210.4,286.9 190.7,286.9 L189.4,286.9 L189.4,286.9 Z M190.7,275.1 C202.5,275.1 210.4,267.2 210.4,252.8 C210.4,238.4 202.5,230.5 190.7,230.5 L189.4,230.5 C177.6,230.5 169.7,238.4 169.7,252.8 C169.7,267.2 177.6,275.1 189.4,275.1 L190.7,275.1 L190.7,275.1 Z" id="Shape" fill="#000000"></path>
                    <path d="M273.6,286.9 C260.5,286.9 255.2,279 255.2,279 L253.9,279 L253.9,310.5 L252.6,311.8 L242.1,311.8 L240.8,310.5 L240.8,221.3 L242.1,220 L251.3,220 L252.6,221.3 L253.9,226.5 L255.2,226.5 C255.2,226.5 260.5,218.6 273.6,218.6 C292,218.6 302.5,233 302.5,252.7 C302.5,272.5 292,286.9 273.6,286.9 L273.6,286.9 Z M272.3,230.5 C261.8,230.5 253.9,237.1 253.9,252.8 C253.9,268.5 261.8,275.1 272.3,275.1 C282.8,275.1 289.4,267.2 289.4,252.8 C289.4,238.4 282.8,230.5 272.3,230.5 L272.3,230.5 Z" id="Shape" fill="#000000"></path>
                    <path d="M306.4,46.3 L234.2,46.3 L232.9,45 L232.9,35.8 L234.2,34.5 L306.4,34.5 L307.7,35.8 L307.7,45 L306.4,46.3 L306.4,46.3 Z" id="Shape" fill="#000000"></path>
                </g>
            </g>
        </g>
    </g>
</svg>